<mxfile host="app.diagrams.net" modified="2022-09-01T03:57:42.479Z" agent="5.0 (Macintosh; Intel Mac OS X 10_15_7) AppleWebKit/537.36 (KHTML, like Gecko) Chrome/104.0.0.0 Safari/537.36" etag="EajKY3k9sKiFpVvllTzZ" version="20.2.7" type="github">
  <diagram id="C5RBs43oDa-KdzZeNtuy" name="Page-1">
    <mxGraphModel dx="1298" dy="834" grid="1" gridSize="10" guides="1" tooltips="1" connect="1" arrows="1" fold="1" page="1" pageScale="1" pageWidth="827" pageHeight="1169" math="0" shadow="0">
      <root>
        <mxCell id="WIyWlLk6GJQsqaUBKTNV-0" />
        <mxCell id="WIyWlLk6GJQsqaUBKTNV-1" parent="WIyWlLk6GJQsqaUBKTNV-0" />
        <mxCell id="-QVXiJTxFLureI_cpFyi-0" value="开始" style="rounded=1;whiteSpace=wrap;html=1;" vertex="1" parent="WIyWlLk6GJQsqaUBKTNV-1">
          <mxGeometry x="150" y="120" width="120" height="60" as="geometry" />
        </mxCell>
        <mxCell id="-QVXiJTxFLureI_cpFyi-1" value="事务1：决策是否允许取消" style="swimlane;" vertex="1" parent="WIyWlLk6GJQsqaUBKTNV-1">
          <mxGeometry x="110" y="250" width="200" height="450" as="geometry" />
        </mxCell>
        <mxCell id="-QVXiJTxFLureI_cpFyi-2" value="循环：对子单做tcc cancel" style="swimlane;" vertex="1" parent="WIyWlLk6GJQsqaUBKTNV-1">
          <mxGeometry x="380" y="250" width="240" height="450" as="geometry" />
        </mxCell>
        <mxCell id="-QVXiJTxFLureI_cpFyi-3" value="事务：执行子单tcc cancel" style="swimlane;" vertex="1" parent="-QVXiJTxFLureI_cpFyi-2">
          <mxGeometry x="20" y="60" width="200" height="360" as="geometry" />
        </mxCell>
      </root>
    </mxGraphModel>
  </diagram>
</mxfile>
